<svg width="275" height="181" viewBox="0 0 275 181" fill="none" xmlns="http://www.w3.org/2000/svg">
<circle cx="247" cy="153" r="28" fill="#E86F6F"/>
<circle r="9" transform="matrix(-1 0 0 1 196 41)" fill="#FF6C6C"/>
<circle cx="11" cy="122" r="31" fill="#F7D0AC" fill-opacity="0.6"/>
<circle r="18" transform="matrix(-1 0 0 1 71 18)" fill="#F7ACBD"/>
<circle cx="135.27" cy="106.962" r="42.8495" stroke="white" stroke-width="4"/>
<circle cx="135.27" cy="106.962" r="36.768" stroke="white" stroke-width="2"/>
<path d="M140.499 85.4758L140.5 85.46V85.4442C140.5 84.8867 140.359 84.3762 139.99 84.0086C139.621 83.6414 139.109 83.5 138.547 83.5H131.453C130.891 83.5 130.379 83.6414 130.01 84.0086C129.641 84.3762 129.5 84.8867 129.5 85.4442V85.46L129.501 85.4758L131.282 113.638C131.301 114.17 131.451 114.652 131.804 114.999C132.16 115.35 132.645 115.486 133.172 115.486H136.828C137.356 115.486 137.838 115.349 138.192 114.998C138.542 114.651 138.69 114.17 138.718 113.642L140.499 85.4758ZM140 122.622C140 122.084 139.862 121.591 139.501 121.236C139.142 120.882 138.646 120.749 138.109 120.749H131.906C131.352 120.749 130.843 120.879 130.473 121.229C130.098 121.583 129.953 122.08 129.953 122.622V128.627C129.953 129.169 130.098 129.666 130.473 130.02C130.843 130.37 131.352 130.5 131.906 130.5H138.109C138.646 130.5 139.142 130.367 139.501 130.013C139.862 129.658 140 129.165 140 128.627V122.622Z" fill="white" stroke="white"/>
</svg>
