<svg width="204" height="188" viewBox="0 0 204 188" fill="none" xmlns="http://www.w3.org/2000/svg">
<path d="M43.4999 108C40.1666 114 31.4999 124.2 23.4999 117C13.4999 108 27.5 101 32.9999 108C36.0423 111.872 23.4999 126.5 0.5 124" stroke="#6280EB" stroke-width="2"/>
<path d="M158.5 149C164.5 148.5 177 150.8 179 164" stroke="#AFF0B6" stroke-width="2"/>
<circle cx="110" cy="94" r="55" stroke="white" stroke-width="4"/>
<circle cx="110" cy="94" r="47.5" stroke="white"/>
<path d="M132.181 86.4751L106.974 111.251C105.816 112.372 104.261 113 102.641 113C101.022 113 99.4669 112.372 98.3085 111.251L87.8494 101.098C87.2716 100.538 86.8107 99.8694 86.4935 99.1323C86.1763 98.3952 86.0087 97.6036 86.0003 96.8023C85.992 96.0011 86.1431 95.206 86.445 94.4626C86.7469 93.7192 87.1936 93.0418 87.7597 92.4694C88.3258 91.897 89 91.4406 89.7441 91.1263C90.4882 90.8121 91.2877 90.646 92.0966 90.6378C92.9055 90.6295 93.7081 90.7792 94.4586 91.0783C95.2091 91.3773 95.8928 91.8198 96.4707 92.3805L102.582 98.3008L123.5 77.7724C124.074 77.2078 124.754 76.7605 125.503 76.4564C126.251 76.1523 127.053 75.9973 127.861 76C128.67 76.0028 129.471 76.1631 130.217 76.4723C130.963 76.7815 131.641 77.2335 132.211 77.8021C132.781 78.3706 133.232 79.0445 133.539 79.7859C133.846 80.5272 134.003 81.3211 134 82.1223C133.997 82.9236 133.835 83.7167 133.523 84.4559C133.211 85.1951 132.755 85.866 132.181 86.4306V86.4751Z" fill="white"/>
<circle cx="79" cy="7" r="7" fill="#FFC4C4"/>
<circle cx="139.68" cy="180.012" r="7" transform="rotate(174.543 139.68 180.012)" fill="#B1E5FC"/>
<circle cx="195.634" cy="131.634" r="7" transform="rotate(174.543 195.634 131.634)" fill="#8DA0D0"/>
<circle cx="187.634" cy="87.6339" r="6" transform="rotate(174.543 187.634 87.6339)" stroke="#FDC1DE" stroke-width="2"/>
<circle cx="38.6338" cy="160.634" r="9.23983" transform="rotate(174.543 38.6338 160.634)" stroke="#FCC788" stroke-width="2"/>
<circle cx="39.1673" cy="46.1672" r="5.20257" transform="rotate(174.543 39.1673 46.1672)" stroke="#6CEF89" stroke-width="2"/>
<circle cx="103" cy="22" r="4" fill="#E3F285"/>
<circle cx="114.362" cy="167.362" r="4" transform="rotate(174.543 114.362 167.362)" fill="#DCC0FF"/>
<path d="M150 39C155.5 40.1667 167.2 40 170 30C173.5 17.5 185.5 11.5 192.5 13.5" stroke="#D7D7D7" stroke-width="2"/>
</svg>
